<?xml version="1.0" encoding="UTF-8"?>
<!-- Creator: CorelDRAW X8 -->
<svg xmlns="http://www.w3.org/2000/svg" xmlns:xlink="http://www.w3.org/1999/xlink" xml:space="preserve" width="115.038mm" height="32.1215mm" version="1.1" style="shape-rendering:geometricPrecision; text-rendering:geometricPrecision; image-rendering:optimizeQuality; fill-rule:evenodd; clip-rule:evenodd" viewBox="0 0 6424 1794">
 <defs>
  <style type="text/css">
   <![CDATA[
    .fil2 {fill:#303358;fill-rule:nonzero}
    .fil3 {fill:url(#id0)}
    .fil5 {fill:url(#id1)}
    .fil6 {fill:url(#id2)}
    .fil4 {fill:url(#id3)}
    .fil0 {fill:url(#id4)}
    .fil1 {fill:url(#id5)}
   ]]>
  </style>
  <linearGradient id="id0" gradientUnits="userSpaceOnUse" x1="3065.44" y1="957.833" x2="3430.4" y2="957.833">
   <stop offset="0" style="stop-opacity:1; stop-color:#217ABE"></stop>
   <stop offset="0" style="stop-opacity:1; stop-color:#217ABE"></stop>
   <stop offset="1" style="stop-opacity:1; stop-color:#0DB8D6"></stop>
  </linearGradient>
  <linearGradient id="id1" gradientUnits="userSpaceOnUse" xlink:href="#id0" x1="2596.2" y1="835.318" x2="2995.31" y2="835.318">
  </linearGradient>
  <linearGradient id="id2" gradientUnits="userSpaceOnUse" xlink:href="#id0" x1="2741.68" y1="759.254" x2="3251.01" y2="759.254">
  </linearGradient>
  <linearGradient id="id3" gradientUnits="userSpaceOnUse" xlink:href="#id0" x1="2774.72" y1="1041.46" x2="3283.97" y2="1041.46">
  </linearGradient>
  <linearGradient id="id4" gradientUnits="userSpaceOnUse" xlink:href="#id0" x1="3233.61" y1="1570.58" x2="2249.09" y2="2555.1">
  </linearGradient>
  <linearGradient id="id5" gradientUnits="userSpaceOnUse" x1="2825.04" y1="325.439" x2="3418.94" y2="-717.125">
   <stop offset="0" style="stop-opacity:1; stop-color:#0DB8D6"></stop>
   <stop offset="0.988235" style="stop-opacity:1; stop-color:#2AA6DF"></stop>
   <stop offset="1" style="stop-opacity:1; stop-color:#2AA6DF"></stop>
  </linearGradient>
 </defs>
 <g id="Layer_x0020_1">
  <metadata id="CorelCorpID_0Corel-Layer"></metadata>
  <g id="_2356944706608">
   <path class="fil0" d="M2564 1794l192 0 205 -206c13,-13 31,-20 49,-20l0 0c19,0 37,7 50,20l0 0 205 206 192 0 -302 -302c-40,-40 -92,-60 -145,-60l0 0c-52,0 -105,20 -145,60l0 0 -301 302z"></path>
   <path class="fil1" d="M3265 0l-205 206c-13,13 -31,20 -50,20l0 0c-18,0 -36,-7 -49,-20l0 0 -205 -206 -192 0 301 301c40,40 93,60 145,60 53,0 105,-20 145,-60l0 0 302 -301 -192 0z"></path>
   <path class="fil2" d="M628 897c0,-31 -4,-61 -12,-90 -8,-29 -20,-55 -37,-77 -16,-22 -38,-40 -65,-54 -27,-13 -59,-20 -96,-20 -37,0 -69,7 -96,20 -26,14 -48,32 -66,54 -17,22 -30,48 -39,78 -8,29 -12,60 -12,92 0,68 18,125 54,169 35,45 88,67 159,67 35,0 66,-6 92,-19 27,-13 48,-31 66,-52 17,-22 30,-47 38,-76 9,-29 14,-60 14,-92zm206 -2c0,59 -10,114 -29,163 -20,50 -48,93 -85,129 -37,37 -81,65 -133,85 -52,20 -109,30 -172,30 -63,0 -121,-9 -172,-28 -51,-20 -95,-46 -130,-81 -36,-35 -64,-77 -83,-127 -20,-49 -30,-105 -30,-166 0,-57 10,-111 29,-161 19,-50 46,-93 82,-129 36,-37 80,-65 131,-87 52,-21 111,-32 176,-32 65,0 124,11 175,31 52,20 96,48 132,84 35,35 63,78 81,127 19,49 28,103 28,162z"></path>
   <path class="fil2" d="M1184 639c12,-21 28,-40 47,-57 19,-18 41,-33 65,-45 25,-13 51,-23 79,-30 28,-7 56,-11 85,-11 59,0 108,10 146,30 37,21 67,49 87,85 15,27 25,58 30,93 5,34 8,66 8,93l0 488 -204 0 0 -438c0,-25 -1,-49 -5,-72 -3,-23 -9,-42 -20,-57 -12,-20 -29,-35 -50,-44 -21,-9 -46,-13 -72,-13 -27,0 -55,7 -84,22 -29,14 -54,35 -75,62 -22,30 -32,69 -32,116l0 424 -206 0 0 -592 -108 0 0 -181 309 0 0 127z"></path>
   <path class="fil2" d="M2316 759l0 -101 -17 0c-41,0 -76,6 -105,19 -30,13 -54,31 -73,53 -19,22 -33,48 -42,77 -9,29 -13,59 -13,90 0,74 19,133 57,175 38,43 95,64 169,64 36,0 72,-5 109,-15 37,-11 74,-28 109,-52l0 170c-40,21 -79,37 -119,48 -40,10 -84,15 -133,15 -67,0 -126,-10 -175,-29 -50,-20 -91,-48 -125,-83 -33,-36 -58,-79 -74,-128 -17,-50 -25,-105 -25,-164 0,-65 11,-123 32,-174 21,-50 50,-93 88,-127 37,-34 81,-60 132,-78 50,-18 106,-28 166,-28 44,0 83,4 117,11 34,6 68,17 103,31l0 226 -181 0z"></path>
   <path class="fil2" d="M3916 752l0 -96c-9,-1 -18,-2 -27,-2 -9,-1 -18,-1 -26,-1 -75,0 -113,25 -113,76 0,18 6,31 18,41 12,10 36,22 72,35l88 34c37,15 68,29 94,42 27,14 48,29 65,46 16,17 29,37 36,58 8,22 12,48 12,77 0,77 -28,137 -85,177 -56,41 -141,62 -254,62 -43,0 -90,-5 -140,-14 -50,-10 -95,-25 -135,-45l0 -177c95,51 187,77 277,77 43,0 75,-7 95,-21 19,-14 29,-35 29,-63 0,-20 -8,-36 -23,-45 -16,-10 -41,-21 -76,-34l-95 -34c-57,-21 -103,-48 -137,-82 -35,-33 -53,-80 -53,-140 0,-74 26,-130 78,-170 52,-40 131,-60 238,-60 39,0 81,4 126,12 44,9 84,19 118,32l0 215 -182 0z"></path>
   <path class="fil2" d="M4815 816c0,-49 -16,-89 -48,-120 -32,-32 -76,-48 -132,-48 -56,0 -102,15 -139,45 -36,29 -56,70 -62,123l381 0zm154 402c-43,22 -90,42 -142,59 -53,17 -116,25 -191,25 -66,0 -125,-9 -176,-28 -51,-20 -95,-47 -130,-82 -35,-35 -62,-78 -80,-128 -18,-50 -27,-106 -27,-167 0,-54 9,-105 26,-154 18,-49 44,-92 78,-129 34,-37 77,-67 129,-88 52,-22 112,-33 180,-33 119,0 211,33 274,99 63,65 94,160 94,285l0 35c0,15 0,26 -1,35l-573 0c1,55 22,100 63,136 40,37 97,55 168,55 37,0 71,-3 100,-7 29,-5 55,-11 79,-19 24,-8 46,-17 67,-28 20,-11 41,-22 62,-33l0 167z"></path>
   <path class="fil2" d="M5360 639c26,-41 63,-76 111,-102 48,-27 100,-41 155,-41 61,0 114,12 158,37 45,24 76,65 93,122 31,-50 72,-89 121,-117 50,-28 102,-42 157,-42 64,0 113,10 149,30 35,21 64,49 84,85 15,26 24,56 29,92 5,35 7,67 7,94l0 488 -202 0 0 -433c0,-26 -2,-51 -7,-75 -4,-25 -11,-44 -19,-59 -23,-38 -62,-57 -117,-57 -27,0 -54,7 -81,21 -28,14 -51,35 -71,63 -9,12 -17,28 -23,49 -6,20 -10,43 -10,69l0 422 -203 0 0 -433c0,-26 -2,-51 -5,-75 -3,-25 -9,-44 -18,-59 -25,-38 -65,-57 -120,-57 -27,0 -54,7 -80,22 -26,14 -50,35 -71,62 -21,30 -32,69 -32,116l0 424 -205 0 0 -592 -109 0 0 -181 309 0 0 127z"></path>
   <path class="fil3" d="M3327 620c-41,48 -96,84 -159,101l0 0c3,3 5,6 8,9l0 0c11,15 19,32 27,51l0 0c50,57 81,131 81,213l0 0c0,18 -2,36 -5,53l0 0c-9,57 -33,108 -68,151l0 0c-1,1 -2,2 -3,4l0 0c-37,44 -86,78 -143,97l0 0c43,-4 82,-13 118,-27l0 0c20,-8 38,-17 55,-27l0 0c4,-2 8,-4 12,-6l0 0c24,-15 46,-32 66,-52l0 0c37,-36 65,-79 85,-129l0 0c20,-49 29,-104 29,-163 0,-59 -9,-113 -28,-162l0 0c-16,-45 -41,-83 -72,-117l0 0c-1,2 -2,3 -3,4l0 0z"></path>
   <path class="fil4" d="M3284 995l0 -1c0,-82 -31,-156 -81,-213l0 0c3,8 7,17 9,26l0 0c8,29 12,59 12,90l0 0c0,32 -5,63 -13,92l0 0c-7,20 -16,38 -26,55l0 0c0,0 -8,14 -17,24l0 0c-39,45 -79,56 -79,56l0 0c0,0 -2,1 -4,1l0 0c-2,1 -8,3 -15,5l0 0c-17,4 -36,6 -56,6l0 0c0,0 0,0 0,0l0 0c0,0 0,0 0,0l0 0c-95,0 -180,41 -239,107l0 0c20,11 41,22 64,31l0 0c52,19 109,28 172,28l0 0c19,0 37,-1 54,-3l0 0c57,-19 106,-53 143,-97l0 0c1,-2 2,-3 3,-4l0 0c35,-43 59,-94 68,-151l0 0c3,-17 5,-34 5,-52z"></path>
   <path class="fil5" d="M2839 523c-18,7 -34,16 -49,24l0 0c-4,2 -7,5 -11,7l0 0c-27,16 -51,34 -72,56l0 0c-35,36 -63,79 -82,129l0 0c-19,50 -29,104 -29,161 0,61 10,116 30,166l0 0c17,43 40,81 70,112l0 0c0,0 0,0 0,0l0 0c41,-51 97,-88 161,-106l0 0c-1,-1 -2,-2 -2,-3l0 0c-11,-13 -19,-27 -26,-42l0 0c-54,-58 -87,-135 -87,-220l0 0c0,-18 2,-35 4,-53l0 0c10,-59 36,-113 73,-156l0 0c2,-2 3,-3 4,-5l0 0c45,-50 105,-86 172,-101l0 0c-57,2 -110,12 -156,31l0 0z"></path>
   <path class="fil6" d="M3014 491l-1 0c-6,0 -12,1 -18,1l0 0c-67,15 -127,51 -172,101l0 0c-1,2 -2,3 -4,5l0 0c-37,43 -63,97 -73,156l0 0c-2,18 -4,35 -4,53l0 0c0,85 33,162 87,220l0 0c-18,-36 -28,-79 -28,-127l0 0c0,-32 4,-63 13,-92l0 0c7,-27 19,-50 34,-70l0 0c0,0 21,-36 68,-60l0 0 14 -6c5,-3 11,-5 17,-7l0 0c3,0 6,-1 9,-2l0 0c8,-2 15,-3 23,-4l0 0c2,-1 3,-1 5,-1l0 0c1,0 2,0 3,-1l0 0c2,0 3,0 5,0l0 0c8,-1 15,-1 20,-1l0 0c1,0 1,0 2,0l0 0c0,0 0,0 0,0l0 0c94,0 178,-40 237,-104 -19,-11 -39,-22 -61,-30l0 0c-52,-20 -111,-31 -176,-31z"></path>
  </g>
 </g>
</svg>
